<svg width="282" height="292" viewBox="0 0 282 292" fill="none" xmlns="http://www.w3.org/2000/svg">
<g filter="url(#filter0_d_4_34)">
<path fill-rule="evenodd" clip-rule="evenodd" d="M88.8 95.0192C88.8 92.8393 89.6889 90.7487 91.2713 89.2073C92.8536 87.6659 94.9997 86.8 97.2375 86.8H170.362C172.6 86.8 174.746 87.6659 176.329 89.2073C177.911 90.7487 178.8 92.8393 178.8 95.0192V116.937C178.8 119.117 177.911 121.207 176.329 122.749C174.746 124.29 172.6 125.156 170.362 125.156H97.2375C94.9997 125.156 92.8536 124.29 91.2713 122.749C89.6889 121.207 88.8 119.117 88.8 116.937V95.0192ZM100.348 105.978C100.348 104.525 100.941 103.131 101.996 102.104C103.051 101.076 104.481 100.499 105.973 100.499C107.465 100.499 108.896 101.076 109.951 102.104C111.005 103.131 111.598 104.525 111.598 105.978C111.598 107.431 111.005 108.825 109.951 109.853C108.896 110.88 107.465 111.458 105.973 111.458C104.481 111.458 103.051 110.88 101.996 109.853C100.941 108.825 100.348 107.431 100.348 105.978ZM122.848 100.499C121.356 100.499 119.926 101.076 118.871 102.104C117.816 103.131 117.223 104.525 117.223 105.978C117.223 107.431 117.816 108.825 118.871 109.853C119.926 110.88 121.356 111.458 122.848 111.458C124.34 111.458 125.771 110.88 126.826 109.853C127.88 108.825 128.473 107.431 128.473 105.978C128.473 104.525 127.88 103.131 126.826 102.104C125.771 101.076 124.34 100.499 122.848 100.499ZM88.8 138.855C88.8 136.675 89.6889 134.584 91.2713 133.043C92.8536 131.502 94.9997 130.636 97.2375 130.636H170.362C172.6 130.636 174.746 131.502 176.329 133.043C177.911 134.584 178.8 136.675 178.8 138.855V160.773C178.8 162.952 177.911 165.043 176.329 166.584C174.746 168.126 172.6 168.992 170.362 168.992H138.317V178.581H173.473C174.592 178.581 175.665 179.014 176.456 179.784C177.247 180.555 177.692 181.6 177.692 182.69C177.692 183.78 177.247 184.826 176.456 185.596C175.665 186.367 174.592 186.8 173.473 186.8H94.7231C93.6042 186.8 92.5312 186.367 91.74 185.596C90.9488 184.826 90.5044 183.78 90.5044 182.69C90.5044 181.6 90.9488 180.555 91.74 179.784C92.5312 179.014 93.6042 178.581 94.7231 178.581H129.879V168.992H97.2375C94.9997 168.992 92.8536 168.126 91.2713 166.584C89.6889 165.043 88.8 162.952 88.8 160.773V138.855ZM100.348 149.814C100.348 148.36 100.941 146.967 101.996 145.939C103.051 144.912 104.481 144.334 105.973 144.334C107.465 144.334 108.896 144.912 109.951 145.939C111.005 146.967 111.598 148.36 111.598 149.814C111.598 151.267 111.005 152.661 109.951 153.688C108.896 154.716 107.465 155.293 105.973 155.293C104.481 155.293 103.051 154.716 101.996 153.688C100.941 152.661 100.348 151.267 100.348 149.814ZM117.223 149.814C117.223 148.36 117.816 146.967 118.871 145.939C119.926 144.912 121.356 144.334 122.848 144.334C124.34 144.334 125.771 144.912 126.826 145.939C127.88 146.967 128.473 148.36 128.473 149.814C128.473 151.267 127.88 152.661 126.826 153.688C125.771 154.716 124.34 155.293 122.848 155.293C121.356 155.293 119.926 154.716 118.871 153.688C117.816 152.661 117.223 151.267 117.223 149.814Z" fill="url(#paint0_linear_4_34)"/>
</g>
<defs>
<filter id="filter0_d_4_34" x="-1.52588e-05" y="-1.52588e-05" width="281.6" height="291.6" filterUnits="userSpaceOnUse" color-interpolation-filters="sRGB">
<feFlood flood-opacity="0" result="BackgroundImageFix"/>
<feColorMatrix in="SourceAlpha" type="matrix" values="0 0 0 0 0 0 0 0 0 0 0 0 0 0 0 0 0 0 127 0" result="hardAlpha"/>
<feOffset dx="7" dy="9"/>
<feGaussianBlur stdDeviation="47.9"/>
<feComposite in2="hardAlpha" operator="out"/>
<feColorMatrix type="matrix" values="0 0 0 0 0 0 0 0 0 0 0 0 0 0 0 0 0 0 0.25 0"/>
<feBlend mode="normal" in2="BackgroundImageFix" result="effect1_dropShadow_4_34"/>
<feBlend mode="normal" in="SourceGraphic" in2="effect1_dropShadow_4_34" result="shape"/>
</filter>
<linearGradient id="paint0_linear_4_34" x1="88.8" y1="91.3918" x2="163.813" y2="190.676" gradientUnits="userSpaceOnUse">
<stop/>
<stop offset="1"/>
</linearGradient>
</defs>
</svg>
